<?xml version="1.0" encoding="utf-8"?>

<!DOCTYPE svg PUBLIC "-//W3C//DTD SVG 1.1//EN" "http://www.w3.org/Graphics/SVG/1.1/DTD/svg11.dtd">
<svg version="1.1" id="Layer_1" xmlns="http://www.w3.org/2000/svg" xmlns:xlink="http://www.w3.org/1999/xlink" x="0px" y="0px"
	 viewBox="0 0 1897.135 1669.559" enable-background="new 0 0 1897.135 1669.559" xml:space="preserve">
<g>
	<path d="M1752.882,1634.779c-6.033-5.533-18.024-2.449-25.857-12.129c-2.373-2.933-10.74,0.462-16.782-4.741
		c-7.133-6.141-16.674-6.3-24.455-10.731c-11.986-6.826-54.241-3.483-61.925-12.446c-0.375-0.438-1.553-0.457-2.27-0.292
		c-8.616,1.985-25.774-8.626-37.883-6.49c-5.099,0.899-268.714-56.281-277.947-53.825c-9.011,2.397-2.784,0.44-167.49-16.396
		c-33.534-3.428-76.812-11.589-133.503-4.516c-6.99,0.872-14.121,1.577-21.052-1.091c-2.946-1.134-5.548,1.336-8.618,1.251
		c-70.014-1.935-70.399,3.625-133.002-11.393c-95.917-23.01-71.715-10.425-132.941-28.258
		c-18.829-5.484-116.176-30.211-116.176-30.211c-1.585-1.225-4.007-0.152-5.604,2.5c-5.728,9.511-14.08,14.662-25.566,15.253
		c-15.315,0.788-32.622,6.951-60.071,5.546c-10.284-0.526-44.101-17.678-70.83-27.693c-8.617-3.228-14.405-10.227-22.423-14.182
		c-23.762-11.723-47.272-23.959-70.88-35.994c-11.721-5.975-18.462-0.691-18.046,6.557c0.5,8.698-3.341,18.487,7.014,27.987
		c84.178,77.231,86.367,78.68,92.927,87.132c3.777,4.866,9.498,9.081,17.024,9.187c15.639,0.219,26.634,11.507,27.03,27.178
		c0.437,17.312,12.662,43.553-41.443,55.967c-10.365,2.378-19.641-3.249-29.357-5.576c-36.975-8.854-74.314-43.002-88.063-50.059
		c-12.091-6.205-11.794-4.137-89.087-125.334c-13.377-20.975-37.9-55.766-39.796-65.805
		c-19.484-103.121-14.739-75.339-16.114-135.646c-0.885-38.809,1.537-32.053-7.045-45.836
		c-31.39-50.419-48.226-80.468-59.959-112.829c-14.576-40.201-34.259-39.498-41.51-74.17c-1.232-5.89-12.771-65.92-11.572-71.859
		c3.314-16.419,3.674-33.301,8.176-49.551c10.31-37.217-8.314-1.489,31.099-111.219c43.616-121.431,21.723-82.35,80.013-282.449
		c106.001-363.887,101.96-362.952,119.703-375.751c15.988-11.533,29.509-46.25,73.613-55.765
		c17.205-3.712,34.748-8.469,52.417-5.264C519.027,56.59,439.6,26.108,600.435,81.455c31.329,10.781,23.021,53.629-10.514,51.012
		c-24.503-1.912-140.424-19.593-162.148-22.247c-7.506-0.917-40.773,1.318-40.827,1.311c-19.885-2.527-28.451,9.795-43.901,23.571
		c-16.722,14.909-11.745,9.894-33.994,85.766c-22.324,76.129-21.97,68.425-28.172,115.506
		c-32.567,247.213-33.587,191.14,3.169,285.797c2.535,6.529-7.824,0.102,172.751,80.675c15.384,6.864,90.791,63.329,90.791,63.329
		c14.847,4.184,24.347,15.812,35.09,25.536c367.205,332.351,222.009,194.013,305.363,255.431c8.374,6.17,3.841,2.91,137.905,50.844
		c4.367,1.561,8.458,1.848,12.639-0.032c23.131-10.397,47.743-13.749,72.73-15.22c13.442-0.792,6.032-5.093,37.629-29.717
		c6.753-5.263,10.086-5.45,42.86-10.015c6.594-0.919,6.382-1.77,33.68-29.891c8.032-8.274-5.845-7.075,20.058-26.975
		c7.798-5.99,16.657-10.464,24.22-16.977c6.221-5.357,11.501-4.434,17.075,1.542c3.356,3.597,8.348,4.478,11.612,8.781
		c20.279,26.73,24.205,86.734,60.906,100.563c19,7.159,10.934,17.669,26.728,24.224c41.23,17.108,53.284,42.265,62.702,54.571
		c12.657,16.537-0.894,22.119,10.172,29.775c3.943,2.728,4.403,5.866,2.863,10.623c-15.237,47.042,26.209,57.678,10.18,82.927
		c-4.771,7.515-6.897,15.995-8.086,24.579c-1.962,14.162-11.698,23.902-25.988,24.401c-4.744,0.166-8.275,0.789-10.026,5.974
		c-1.016,3.009-10.903,5.895-14.795,5.054c-3.276-0.708-26.879-7.532-26.567,2.758c0.054,1.79,271.454,98.005,272.348,98.051
		c18.52,0.954,36.285,7.344,55.127,6.789c24.591-0.725,51.643,4.014,63.792,2.977c1.378-0.118,3.033-0.674,4.102-0.129
		c8.223,4.193,17.414,6.203,25.256,11.209c2.321,1.482,4.418,3.323,6.767,4.754c18.672,11.37,14.852,32.016,12.535,34.192
		c-6.883,6.462-10.025,16.038-18.322,21.412c-6.331,4.101-6.354,14.216-0.302,18.44c5.393,3.764,6.899,15.297,20.583,14.004
		c3.916-0.37,6.876,0.769,9.62,3.367c5.313,5.03,13.108,7.587,15.404,15.617c0.58,2.031,4.949,0.302,4.041,3.148
		c-2.064,6.464,0.169,13.604-3.366,19.729c-1.302,2.256-2.213,4.496-2.384,7.197c-1.134,17.919-15.197,28.844-33.135,25.548
		c-14.43-2.651-28.692-1.597-42.88,1.325c-4.435,0.913-9.116,0.225-13.348,2.223
		C1759.213,1634.779,1756.047,1634.779,1752.882,1634.779z"/>
</g>
</svg>
